<svg width="49" height="48" viewBox="0 0 49 48" fill="none" xmlns="http://www.w3.org/2000/svg">
<path fill-rule="evenodd" clip-rule="evenodd" d="M44.5 24C44.5 35.0457 35.5457 44 24.5 44C13.4543 44 4.5 35.0457 4.5 24C4.5 12.9543 13.4543 4 24.5 4C35.5457 4 44.5 12.9543 44.5 24ZM25.2167 18.7649C23.2714 19.574 19.3835 21.2487 13.5531 23.7889C12.6064 24.1654 12.1104 24.5337 12.0652 24.8939C11.9889 25.5025 12.7512 25.7422 13.7891 26.0686C13.9303 26.113 14.0766 26.159 14.2265 26.2077C15.2477 26.5397 16.6213 26.928 17.3354 26.9434C17.9832 26.9574 18.7062 26.6904 19.5044 26.1423C24.9519 22.465 27.7639 20.6064 27.9405 20.5663C28.065 20.538 28.2376 20.5025 28.3546 20.6064C28.4715 20.7104 28.46 20.9072 28.4476 20.96C28.3721 21.2819 25.3802 24.0635 23.8318 25.503C23.3491 25.9517 23.0068 26.2701 22.9368 26.3428C22.78 26.5056 22.6202 26.6597 22.4666 26.8077C21.5179 27.7222 20.8065 28.4081 22.506 29.528C23.3227 30.0662 23.9762 30.5113 24.6282 30.9553C25.3402 31.4402 26.0504 31.9238 26.9693 32.5261C27.2034 32.6796 27.427 32.839 27.6448 32.9942C28.4734 33.585 29.2179 34.1157 30.1376 34.0311C30.672 33.9819 31.2241 33.4794 31.5044 31.9806C32.167 28.4386 33.4693 20.7641 33.7703 17.6016C33.7967 17.3246 33.7635 16.97 33.7369 16.8143C33.7102 16.6586 33.6546 16.4369 33.4522 16.2727C33.2126 16.0782 32.8427 16.0372 32.6772 16.0402C31.925 16.0534 30.7709 16.4547 25.2167 18.7649Z" fill="white"/>
</svg>
