<svg width="48" height="48" viewBox="0 0 48 48" fill="none" xmlns="http://www.w3.org/2000/svg">
<path d="M45.5855 33.3539C45.6433 32.7805 45.5124 32.1561 45.4713 31.602C45.3967 30.5943 45.319 29.5866 45.2414 28.5789C45.0647 26.1247 44.4907 23.6615 43.8131 21.2927C42.9985 18.4477 41.9494 15.5923 40.5638 12.9629C40.1724 12.2217 39.3761 11.8174 38.6665 11.3892C37.8605 10.9048 37.0204 10.4775 36.1526 10.1104C34.4383 9.38335 32.6275 8.89985 30.7746 8.67444C30.4813 8.61836 30.1788 8.63119 29.8915 8.71187C29.6129 8.81369 29.3738 9.08322 29.4103 9.3737C32.5722 10.2922 35.5517 11.7344 38.2204 13.6382C34.3054 11.6383 30.006 10.4714 25.6021 10.2134C21.1982 9.95545 16.7884 10.6122 12.6596 12.1408C11.5511 12.5496 11.3638 12.6544 10.0437 13.2863C10.8614 12.4448 11.4567 12.1274 12.4967 11.5793C13.6335 10.9784 14.8125 10.458 16.0247 10.0221C16.6733 9.78847 17.3296 9.58333 17.9874 9.3752C18.2493 9.29135 18.531 9.27637 18.4289 8.96043C18.3543 8.72684 18.0376 8.62951 17.8199 8.65048C15.6893 8.84914 13.6043 9.37879 11.6425 10.2197C10.6445 10.6538 9.68761 11.1739 8.78292 11.774C8.38402 12.039 7.85106 12.3235 7.56482 12.7053C7.27857 13.0872 7.13542 13.6412 6.92529 14.0859C5.24366 17.6309 4.02352 21.3704 3.29376 25.2158C3.13845 26.0244 3.00395 26.8369 2.89026 27.6535C2.73393 28.7815 2.61669 29.914 2.53853 31.051C2.47305 32.0378 2.15482 33.4108 2.78367 34.2508C4.01935 35.8622 5.64797 37.1414 7.51911 37.9703C8.59983 38.4559 9.73565 38.8128 10.9025 39.0334C11.7034 39.1832 13.4224 39.7162 14.03 38.9795C14.4594 38.4584 14.8888 37.9359 15.3182 37.4118C15.5633 37.1123 16.4617 36.4101 15.9014 36.1255C15.6258 35.9833 15.2801 35.9189 14.9877 35.8036C14.3873 35.5664 13.8055 35.2856 13.2474 34.9636C12.1328 34.3197 10.6056 33.3659 9.98279 32.21C11.0913 32.7026 12.1145 33.4079 13.2413 33.896C16.656 35.3928 20.3511 36.1715 24.0897 36.1821C27.8283 36.1926 31.5279 35.4349 34.9513 33.9574C35.5086 33.7163 36.04 33.3944 36.5759 33.1114C36.917 32.9317 37.2566 32.752 37.5992 32.5738C37.6799 32.5319 37.9342 32.3462 38.0271 32.3956C38.2204 32.4975 37.8002 32.8194 37.7088 32.9122C36.891 33.7388 35.9586 34.4476 34.9391 35.0175C34.4103 35.3142 33.8595 35.5715 33.2916 35.7872C33.0236 35.8905 31.9105 36.0627 31.877 36.3936C31.8511 36.6422 32.3932 37.0989 32.5424 37.2785L33.3753 38.2922C33.6387 38.6112 33.8595 39.0409 34.2478 39.2326C34.6361 39.4243 35.1934 39.3045 35.6182 39.2625C36.6545 39.1596 37.6778 38.9549 38.6726 38.6516C40.6704 38.0452 42.5843 37.0435 44.0857 35.5955C44.5265 35.1713 44.9261 34.7076 45.2794 34.2104C45.4543 33.9554 45.5597 33.6605 45.5855 33.3539ZM19.172 29.7109C18.4532 30.2132 17.5701 30.4346 16.6945 30.3319C15.8189 30.2292 15.0135 29.8098 14.435 29.1553C13.6935 28.2958 13.3509 27.4019 13.3479 26.0333C13.367 25.4428 13.5219 24.8641 13.8009 24.3408C14.0799 23.8175 14.4758 23.3631 14.9588 23.0117C16.5926 21.7838 18.8096 22.1372 20.0689 23.7963C21.4544 25.6186 21.0373 28.3692 19.172 29.7109ZM34.3559 26.5874C34.2918 27.5773 33.885 28.5157 33.2032 29.2467C32.5867 29.8965 31.7413 30.2908 30.8395 30.3492C29.9376 30.4077 29.047 30.1258 28.3491 29.5611C27.3532 28.7331 26.8264 27.6146 26.8264 25.9675C26.8516 25.2888 27.059 24.6287 27.4275 24.0544C27.796 23.48 28.3125 23.0118 28.9246 22.6972C30.729 21.7224 32.9627 22.4966 33.8946 24.3743C34.2357 25.0548 34.393 25.8103 34.3513 26.5679C34.3559 26.6098 34.3559 26.5874 34.3559 26.5874Z" fill="white"/>
</svg>
