<svg width="21" height="20" viewBox="0 0 21 20" fill="none" xmlns="http://www.w3.org/2000/svg">
<path d="M14.6666 15.0001C13.75 15.0001 13.0083 15.7501 13.0083 16.6667C13.0083 17.5834 13.75 18.3334 14.6666 18.3334C15.5833 18.3334 16.3333 17.5834 16.3333 16.6667C16.3333 15.7501 15.5833 15.0001 14.6666 15.0001ZM6.33331 15.0001C5.41665 15.0001 4.67498 15.7501 4.67498 16.6667C4.67498 17.5834 5.41665 18.3334 6.33331 18.3334C7.24998 18.3334 7.99998 17.5834 7.99998 16.6667C7.99998 15.7501 7.24998 15.0001 6.33331 15.0001ZM6.33331 12.5001L7.24998 10.8334H13.4583C14.0833 10.8334 14.6333 10.4917 14.9166 9.97508L18.5833 3.33341H4.84165L4.05831 1.66675H1.33331V3.33341H2.99998L5.99998 9.65842L3.51665 14.1667H16.3333V12.5001H6.33331Z" fill="black"/>
</svg>
