<svg width="24" height="24" viewBox="0 0 24 24" fill="none" xmlns="http://www.w3.org/2000/svg">
<path fill-rule="evenodd" clip-rule="evenodd" d="M19.6342 4.53501C17.6652 2.56377 15.0468 1.47771 12.257 1.47656C6.50877 1.47656 1.8303 6.15464 1.82806 11.9046C1.82726 13.7428 2.30749 15.5368 3.22015 17.1184L2.19806 20.8516C1.99476 21.5942 2.67161 22.2783 3.4163 22.0829L7.26911 21.0723C8.79235 21.9031 10.5074 22.3411 12.2528 22.3417H12.2571C18.0047 22.3417 22.6835 17.6631 22.686 11.913C22.687 9.12635 21.6032 6.50618 19.6342 4.53501ZM12.257 20.5804H12.2535C10.6982 20.5798 9.17263 20.1619 7.84175 19.3721L7.52527 19.1843L4.24457 20.0449L5.12028 16.8462L4.91416 16.5182C4.04649 15.1382 3.58824 13.5431 3.58891 11.9052C3.59078 7.12606 7.47934 3.23792 12.2605 3.23792C14.5757 3.23864 16.7521 4.14148 18.3887 5.77991C20.0252 7.41833 20.926 9.59617 20.9251 11.9123C20.9231 16.6918 17.0347 20.5804 12.257 20.5804Z" fill="white"/>
<path fill-rule="evenodd" clip-rule="evenodd" d="M17.0117 14.0887C16.7511 13.9582 15.4699 13.3279 15.2311 13.2409C14.9922 13.154 14.8185 13.1105 14.6448 13.3713C14.4711 13.6322 13.9717 14.2191 13.8197 14.3931C13.6677 14.5669 13.5156 14.5888 13.2551 14.4582C12.9946 14.3278 12.1549 14.0527 11.1596 13.1649C10.3849 12.4739 9.86199 11.6206 9.70993 11.3597C9.55795 11.0989 9.69376 10.9579 9.82423 10.8279C9.94145 10.7111 10.0848 10.5236 10.2151 10.3714C10.3454 10.2193 10.3888 10.1105 10.4757 9.93671C10.5626 9.76276 10.5192 9.61057 10.454 9.48019C10.3888 9.34976 9.8677 8.06715 9.65058 7.5453C9.439 7.03726 9.2242 7.1061 9.06422 7.09801C8.91245 7.09043 8.73851 7.08887 8.56481 7.08887C8.39112 7.08887 8.10876 7.1541 7.86996 7.41492C7.63111 7.67582 6.95789 8.30629 6.95789 9.58877C6.95789 10.8714 7.89163 12.1105 8.02193 12.2844C8.15219 12.4584 9.85941 15.0903 12.4734 16.2191C13.0951 16.4876 13.5805 16.6479 13.9589 16.7679C14.5832 16.9663 15.1512 16.9383 15.6002 16.8712C16.1009 16.7964 17.142 16.2409 17.3591 15.6322C17.5763 15.0235 17.5763 14.5017 17.5111 14.393C17.446 14.2844 17.2722 14.2191 17.0117 14.0887Z" fill="white"/>
</svg>
