<?xml version="1.0" standalone="no"?>
<!DOCTYPE svg PUBLIC "-//W3C//DTD SVG 20010904//EN"
 "http://www.w3.org/TR/2001/REC-SVG-20010904/DTD/svg10.dtd">
<svg version="1.0" xmlns="http://www.w3.org/2000/svg"
 width="72.000000pt" height="72.000000pt" viewBox="0 0 72.000000 72.000000"
 preserveAspectRatio="xMidYMid meet">
<metadata>
Created by potrace 1.14, written by Peter Selinger 2001-2017
</metadata>
<g transform="translate(0.000000,72.000000) scale(0.100000,-0.100000)"
fill="#000000" stroke="none">
<path d="M25 695 l-25 -24 0 -311 0 -311 25 -24 24 -25 311 0 311 0 24 25 25
24 0 311 0 311 -25 24 -24 25 -311 0 -311 0 -24 -25z m392 -187 c33 -31 31
-77 -7 -113 -28 -27 -31 -27 -48 -12 -26 24 -33 22 -77 -23 -35 -35 -44 -40
-85 -40 l-45 1 85 79 c84 80 105 91 128 68 9 -9 12 -4 12 25 0 43 5 45 37 15z
m58 -188 c-79 -79 -100 -91 -123 -68 -9 9 -12 4 -12 -25 0 -43 -5 -45 -37 -15
-34 32 -31 86 8 117 29 23 31 23 50 5 19 -17 21 -17 62 24 37 37 47 42 87 42
l45 0 -80 -80z"/>
</g>
</svg>
