<?xml version="1.0" standalone="no"?>
<!DOCTYPE svg PUBLIC "-//W3C//DTD SVG 20010904//EN"
 "http://www.w3.org/TR/2001/REC-SVG-20010904/DTD/svg10.dtd">
<svg version="1.0" xmlns="http://www.w3.org/2000/svg"
 width="832.000000pt" height="832.000000pt" viewBox="0 0 832.000000 832.000000"
 preserveAspectRatio="xMidYMid meet">
<metadata>
Created by potrace 1.14, written by Peter Selinger 2001-2017
</metadata>
<g transform="translate(0.000000,832.000000) scale(0.100000,-0.100000)"
fill="#000000" stroke="none">
<path d="M640 4160 l0 -4160 899 0 899 0 0 38 c0 20 0 60 1 87 1 44 3 293 2
320 -5 147 -4 335 1 335 4 0 3 11 -2 25 -6 16 -6 25 0 25 5 0 7 6 4 14 -8 21
-10 256 -2 256 4 0 3 11 -2 25 -6 16 -6 25 0 25 5 0 7 6 4 14 -8 21 -10 256
-2 256 4 0 3 11 -2 25 -6 16 -6 25 0 25 5 0 7 6 4 14 -8 21 -10 256 -2 256 4
0 3 11 -2 25 -6 16 -6 25 0 25 5 0 7 6 4 14 -8 21 -10 256 -2 256 4 0 3 11 -2
25 -6 16 -6 25 0 25 5 0 7 6 4 14 -8 21 -10 256 -2 256 4 0 3 11 -2 25 -6 16
-6 25 0 25 5 0 7 6 4 14 -9 22 -10 256 -1 256 5 0 6 4 2 10 -3 5 -7 33 -8 62
-2 38 -11 66 -32 98 -39 62 -196 370 -188 370 3 0 -2 9 -12 20 -10 11 -15 20
-12 20 4 0 -2 17 -12 38 -79 153 -258 697 -295 892 -2 14 -11 54 -20 90 -8 36
-17 79 -20 95 -3 17 -7 40 -10 51 -2 12 -14 84 -26 160 -11 77 -24 163 -29
192 -7 44 -6 52 8 53 9 1 90 2 180 2 155 2 164 1 171 -18 10 -24 51 -154 55
-169 1 -6 5 -20 9 -31 5 -11 15 -38 23 -60 15 -41 26 -67 62 -147 11 -26 21
-52 21 -57 0 -5 3 -11 8 -13 4 -1 18 -28 32 -58 14 -30 46 -90 72 -133 27 -43
48 -82 48 -87 0 -5 4 -10 8 -12 4 -1 18 -19 30 -39 97 -159 327 -420 502 -569
36 -30 67 -58 68 -62 2 -5 8 -8 14 -8 5 0 16 -7 24 -15 9 -8 46 -36 82 -62 37
-26 69 -50 72 -53 3 -3 14 -10 25 -17 11 -7 62 -37 113 -68 89 -54 191 -107
292 -153 92 -41 229 -94 250 -97 3 0 10 -3 15 -6 6 -4 24 -10 40 -14 40 -11
39 -11 125 -35 41 -12 84 -23 95 -24 11 -2 29 -6 40 -9 11 -3 38 -8 60 -12 22
-3 47 -7 55 -10 8 -2 38 -7 65 -10 28 -4 61 -9 75 -11 71 -10 201 -17 340 -17
135 0 193 3 360 18 19 2 64 8 100 15 36 6 79 13 95 16 27 5 120 27 168 39 9 3
25 7 35 9 9 2 28 9 42 14 14 5 27 9 30 9 12 -1 154 49 254 89 253 103 520 263
736 440 138 114 326 311 428 447 29 40 59 79 67 88 22 28 105 158 112 176 4
10 19 36 34 58 15 22 52 92 81 155 79 167 88 187 88 202 0 8 4 18 9 23 25 28
115 349 137 490 3 17 9 54 14 83 25 139 34 547 16 677 -3 28 -9 68 -12 90 -12
89 -23 150 -40 225 -9 36 -18 76 -20 90 -4 23 -18 71 -32 110 -7 20 -6 18 -21
69 -7 24 -16 51 -21 60 -4 9 -23 54 -40 101 -18 47 -40 101 -50 120 -10 19
-32 64 -50 99 -18 35 -43 82 -56 105 -14 23 -27 49 -31 59 -3 9 -9 17 -14 17
-5 0 -9 5 -9 10 0 13 -107 173 -144 215 -14 17 -26 33 -26 36 0 3 -9 17 -21
30 -11 13 -43 51 -72 84 -74 87 -246 255 -335 327 -42 35 -78 66 -80 70 -2 5
-10 8 -17 8 -7 0 -15 4 -17 8 -1 5 -32 28 -68 52 -36 24 -67 46 -70 49 -6 8
-40 28 -65 41 -11 5 -38 21 -60 35 -22 14 -65 37 -95 52 -30 15 -56 31 -58 35
-2 4 -11 8 -21 8 -9 0 -21 4 -26 9 -6 6 -55 28 -110 51 -55 22 -109 45 -120
50 -67 30 -335 105 -452 126 -21 4 -38 7 -95 19 -13 2 -43 6 -68 9 -25 3 -70
9 -100 13 -70 9 -473 10 -561 1 -80 -8 -244 -34 -307 -49 -26 -6 -58 -13 -72
-15 -14 -2 -56 -14 -95 -25 -38 -12 -78 -23 -87 -24 -9 -2 -26 -9 -37 -15 -12
-6 -21 -8 -21 -6 0 5 -115 -36 -167 -59 -17 -8 -34 -15 -38 -15 -16 0 -348
-168 -380 -193 -5 -4 -55 -37 -109 -73 -266 -176 -554 -457 -727 -709 -19 -27
-36 -52 -39 -55 -6 -6 -12 -16 -82 -135 -55 -94 -119 -219 -163 -319 -33 -74
-118 -325 -119 -351 -1 -17 -8 -20 -43 -20 -23 -1 -45 -4 -49 -7 -3 -4 -17 -3
-30 2 -14 6 -26 6 -29 0 -3 -6 -15 -6 -30 0 -16 6 -25 6 -25 0 0 -5 -6 -7 -13
-4 -22 8 -117 9 -117 1 0 -4 -9 -3 -20 3 -13 7 -19 18 -16 28 3 9 8 40 11 67
4 28 8 61 10 74 2 13 7 45 11 70 4 25 9 55 11 66 3 11 6 29 8 40 11 71 17 102
40 205 45 203 99 407 135 506 12 33 22 64 24 71 1 7 5 16 9 19 4 4 7 15 7 24
0 10 27 84 60 166 33 82 60 154 60 161 0 6 4 13 9 15 5 2 11 9 13 17 9 38 204
418 244 475 8 11 14 33 14 48 l0 28 -900 0 -900 0 0 -4160z m4367 2765 c42 -4
85 -9 97 -11 12 -2 32 -6 46 -9 14 -3 40 -9 58 -14 18 -5 36 -11 40 -12 4 -1
12 -3 17 -4 83 -22 306 -119 313 -137 2 -4 8 -8 13 -8 10 0 86 -47 105 -65 6
-5 27 -21 47 -35 42 -29 201 -189 237 -239 14 -19 30 -39 35 -45 50 -52 180
-319 200 -409 2 -10 7 -27 10 -37 3 -10 8 -28 10 -39 3 -12 7 -31 10 -43 27
-119 27 -464 0 -541 -3 -7 -7 -23 -9 -37 -11 -56 -38 -146 -47 -154 -5 -6 -9
-17 -9 -26 0 -22 -98 -219 -121 -244 -11 -11 -19 -26 -19 -33 0 -7 -4 -13 -10
-13 -5 0 -10 -6 -10 -14 0 -8 -3 -16 -7 -18 -5 -1 -26 -25 -48 -53 -86 -108
-199 -210 -320 -292 -118 -79 -344 -175 -470 -198 -11 -2 -32 -6 -46 -9 -106
-22 -394 -30 -469 -12 -35 8 -70 15 -107 21 -45 7 -185 52 -241 77 -26 12 -53
22 -60 24 -8 1 -22 10 -31 18 -10 9 -23 16 -29 16 -17 0 -211 133 -262 179
-24 23 -48 41 -53 41 -4 0 -6 4 -3 9 3 5 0 11 -8 14 -11 4 -91 94 -146 164
-37 47 -110 177 -154 273 -22 49 -66 180 -60 180 3 0 0 8 -5 18 -9 17 -17 54
-26 122 -3 19 -8 51 -11 70 -6 37 -6 245 0 295 3 28 13 94 22 139 20 109 94
294 167 421 71 122 230 300 333 374 19 13 34 28 34 33 0 4 4 8 9 8 5 0 33 16
63 35 89 59 247 132 358 165 140 41 182 49 315 57 50 3 91 6 92 7 3 2 68 -1
150 -9z"/>
</g>
</svg>
