<?xml version="1.0" standalone="no"?>
<!DOCTYPE svg PUBLIC "-//W3C//DTD SVG 20010904//EN"
 "http://www.w3.org/TR/2001/REC-SVG-20010904/DTD/svg10.dtd">
<svg version="1.0" xmlns="http://www.w3.org/2000/svg"
 width="72.000000pt" height="72.000000pt" viewBox="0 0 72.000000 72.000000"
 preserveAspectRatio="xMidYMid meet">
<metadata>
Created by potrace 1.14, written by Peter Selinger 2001-2017
</metadata>
<g transform="translate(0.000000,72.000000) scale(0.100000,-0.100000)"
fill="#000000" stroke="none">
<path d="M380 500 c0 -34 -3 -41 -12 -32 -26 26 -54 11 -133 -68 l-80 -80 50
0 c44 0 53 4 92 42 l43 42 23 -22 23 -22 27 28 c38 40 37 89 -3 127 l-30 29 0
-44z"/>
<path d="M423 358 l-42 -42 -24 22 -23 22 -27 -28 c-38 -40 -37 -89 3 -127
l30 -29 0 44 c0 34 3 41 12 32 26 -26 54 -11 133 68 l80 80 -50 0 c-46 0 -54
-4 -92 -42z"/>
</g>
</svg>
