<?xml version="1.0" standalone="no"?>
<!DOCTYPE svg PUBLIC "-//W3C//DTD SVG 20010904//EN"
 "http://www.w3.org/TR/2001/REC-SVG-20010904/DTD/svg10.dtd">
<svg version="1.0" xmlns="http://www.w3.org/2000/svg"
 width="301.000000pt" height="70.000000pt" viewBox="0 0 301.000000 70.000000"
 preserveAspectRatio="xMidYMid meet">
<metadata>
Created by potrace 1.16, written by Peter Selinger 2001-2019
</metadata>
<g transform="translate(0.000000,70.000000) scale(0.100000,-0.100000)"
fill="#000000" stroke="none">
<path d="M0 465 l0 -235 1505 0 1505 0 0 235 0 235 -1337 0 -1338 0 33 -21
c32 -21 73 -96 132 -241 13 -32 26 -55 29 -52 3 2 26 55 51 117 43 108 46 112
78 115 17 2 32 -1 32 -5 0 -5 9 -74 20 -153 26 -184 26 -180 -5 -180 -14 0
-25 1 -26 3 0 1 -8 63 -18 137 l-17 135 -53 -135 c-29 -74 -55 -137 -57 -139
-11 -12 -39 34 -86 146 -60 144 -56 146 -79 -44 -11 -98 -13 -103 -36 -103
-19 0 -22 4 -18 22 3 13 14 86 24 163 30 225 21 235 -204 235 l-135 0 0 -235z
m1080 -15 l0 -170 -25 0 -25 0 0 170 0 170 25 0 25 0 0 -170z m217 70 c24 0
73 -56 73 -84 l0 -26 -90 0 c-82 0 -90 -2 -90 -19 0 -11 11 -32 24 -48 19 -22
32 -27 67 -28 24 0 55 4 69 9 24 8 24 8 8 -15 -12 -19 -25 -25 -68 -27 -90 -5
-147 34 -157 105 -5 41 12 88 41 113 19 15 75 30 94 24 8 -2 20 -4 29 -4z
m163 -16 c0 -14 2 -14 22 0 32 22 90 20 115 -4 25 -22 36 -80 31 -160 -3 -48
-6 -55 -25 -58 -22 -3 -23 0 -23 66 0 65 -14 132 -28 132 -4 0 -17 3 -29 6
-14 4 -28 -1 -42 -15 -18 -18 -21 -33 -21 -106 0 -84 0 -85 -25 -85 l-25 0 0
113 c0 63 3 117 7 120 12 13 43 7 43 -9z m268 0 c8 -14 10 -14 21 0 21 26 87
21 116 -9 23 -22 25 -32 25 -120 0 -95 0 -95 -25 -95 -25 0 -25 1 -25 85 0 72
-3 88 -20 105 -24 24 -53 26 -74 4 -12 -12 -16 -37 -16 -105 0 -88 0 -89 -25
-89 l-25 0 0 120 c0 112 1 120 20 120 10 0 23 -7 28 -16z m382 -65 c0 -99 9
-119 55 -119 18 0 37 6 42 13 4 6 10 50 13 97 5 79 7 85 28 88 22 3 22 2 22
-117 l0 -121 -25 0 c-14 0 -25 4 -25 9 0 5 -14 3 -30 -6 -36 -18 -80 -10 -106
19 -15 16 -20 40 -22 119 l-4 99 26 0 c26 0 26 -1 26 -81z m270 65 c0 -14 2
-14 22 0 32 22 87 20 113 -4 l22 -20 18 20 c20 22 82 28 115 10 27 -14 40 -64
40 -151 0 -77 -1 -79 -24 -79 -23 0 -24 3 -28 91 -2 76 -6 93 -22 105 -23 16
-45 18 -66 4 -11 -7 -16 -35 -20 -102 -5 -86 -7 -93 -26 -96 -21 -3 -22 2 -25
83 -4 77 -7 89 -28 106 -28 23 -41 24 -67 5 -16 -12 -20 -29 -23 -106 -3 -87
-4 -91 -25 -88 -20 3 -21 9 -24 107 -1 58 0 111 2 118 7 18 46 16 46 -3z"/>
<path d="M0 110 l0 -110 1505 0 1505 0 0 110 0 110 -297 -2 -298 -3 -3 -82
c-2 -46 -7 -83 -12 -83 -5 0 -10 37 -12 83 l-3 82 -180 0 -180 0 -3 -73 -3
-73 28 3 c25 3 28 7 28 38 0 29 -4 36 -23 38 -26 4 -20 22 8 22 48 0 69 -76
28 -104 -12 -9 -37 -16 -55 -16 l-32 0 -3 83 -3 82 -997 3 -998 2 0 -110z"/>
</g>
</svg>
