<?xml version="1.0" standalone="no"?>
<!DOCTYPE svg PUBLIC "-//W3C//DTD SVG 20010904//EN"
 "http://www.w3.org/TR/2001/REC-SVG-20010904/DTD/svg10.dtd">
<svg version="1.0" xmlns="http://www.w3.org/2000/svg"
 width="258.000000pt" height="70.000000pt" viewBox="0 0 258.000000 70.000000"
 preserveAspectRatio="xMidYMid meet">
<metadata>
Created by potrace 1.16, written by Peter Selinger 2001-2019
</metadata>
<g transform="translate(0.000000,70.000000) scale(0.100000,-0.100000)"
fill="#000000" stroke="none">
<path d="M956 468 c4 -25 2 -29 -5 -18 -8 11 -10 2 -8 -32 1 -29 7 -48 14 -48
7 0 16 -8 22 -17 5 -10 17 -18 27 -18 11 0 18 -9 20 -25 3 -21 2 -22 -7 -7 -5
9 -17 17 -26 17 -9 0 -21 7 -27 15 -9 13 -11 10 -12 -12 -1 -16 1 -22 3 -16 5
15 43 -1 43 -18 0 -19 -51 -58 -71 -54 -10 2 -19 0 -19 -6 0 -5 23 -9 51 -9
27 0 48 4 45 9 -9 14 18 42 42 44 12 1 25 9 28 19 7 22 22 22 49 2 16 -11 17
-18 8 -32 -6 -9 -20 -17 -31 -16 -13 0 -18 -4 -15 -13 7 -18 73 -17 73 1 0 8
12 21 27 28 31 15 38 34 29 83 -6 29 -11 34 -38 37 -29 3 -33 8 -43 45 -16 68
-47 83 -57 28 -5 -24 1 -29 30 -26 6 1 12 -3 12 -9 0 -5 -7 -10 -15 -10 -8 0
-15 -5 -15 -11 0 -8 -4 -8 -14 0 -10 9 -16 8 -26 -4 -17 -20 -37 -19 -49 3 -7
13 -13 14 -22 5 -9 -9 -4 -15 18 -27 31 -15 73 -12 73 7 0 6 3 7 6 4 4 -3 15
-2 25 4 27 14 24 -5 -3 -23 -19 -13 -21 -18 -10 -30 10 -13 9 -15 -13 -15 -14
0 -28 4 -32 10 -4 6 0 8 10 4 10 -3 17 -2 17 3 0 6 -16 10 -35 10 -19 0 -35 5
-35 11 0 5 -4 8 -9 4 -12 -7 -34 32 -26 45 3 6 0 10 -7 10 -8 0 -6 5 5 11 21
12 22 42 3 58 -12 10 -14 7 -10 -21z"/>
<path d="M360 416 c7 -10 10 -45 8 -105 -2 -76 0 -91 12 -91 12 0 14 13 10 80
-3 44 -3 80 0 80 3 -1 34 -37 69 -80 36 -44 69 -80 73 -80 4 0 8 42 8 93 0 59
4 97 12 105 9 9 5 12 -21 12 -28 0 -31 -2 -22 -14 7 -8 11 -38 9 -71 l-3 -56
-58 70 c-45 54 -64 71 -84 71 -21 0 -23 -3 -13 -14z"/>
<path d="M651 416 c-45 -25 -66 -100 -41 -147 15 -28 63 -49 110 -49 59 0 80
14 80 53 0 18 5 38 12 45 9 9 4 12 -22 12 -35 0 -35 0 -35 -47 0 -47 -1 -48
-32 -51 -49 -5 -83 33 -83 93 0 86 77 125 134 69 23 -24 26 -24 26 -8 0 11 -4
24 -8 29 -11 16 -114 17 -141 1z"/>
<path d="M1470 416 c7 -10 10 -45 8 -105 l-3 -91 61 0 c46 0 65 4 77 18 24 26
21 58 -5 77 -21 15 -22 17 -5 26 22 13 22 51 -1 72 -25 23 -151 25 -132 3z"/>
<path d="M1745 398 c-7 -18 -25 -62 -39 -97 -14 -36 -32 -68 -39 -73 -8 -5 -5
-8 8 -8 15 0 25 10 34 36 12 32 15 35 49 32 32 -3 38 -7 47 -35 7 -27 14 -33
37 -33 27 0 28 1 15 23 -8 12 -29 59 -47 105 -19 45 -38 82 -42 82 -5 0 -15
-15 -23 -32z"/>
<path d="M1923 419 c14 -8 17 -24 17 -92 0 -51 -5 -88 -12 -95 -9 -9 -6 -12
16 -12 23 0 26 3 17 14 -7 9 -11 41 -9 83 l3 68 69 -82 c38 -46 73 -83 78 -83
4 0 8 45 8 99 0 70 4 101 13 104 6 3 -3 6 -22 6 -28 1 -31 -1 -22 -13 7 -8 11
-38 9 -72 l-3 -58 -59 72 c-50 62 -63 72 -90 72 -26 -1 -28 -2 -13 -11z"/>
<path d="M2190 416 c7 -10 10 -45 8 -105 -3 -87 -2 -91 18 -91 20 0 21 4 16
45 -2 25 -1 45 4 45 5 0 25 -20 44 -45 27 -34 42 -44 64 -45 l29 0 -52 55 -53
55 29 34 c15 18 39 40 53 49 l25 16 -37 1 c-30 0 -36 -3 -31 -16 5 -15 -51
-84 -69 -84 -15 0 -8 68 8 84 14 15 12 16 -27 16 -35 0 -40 -2 -29 -14z"/>
</g>
</svg>
