<?xml version="1.0" standalone="no"?>
<!DOCTYPE svg PUBLIC "-//W3C//DTD SVG 20010904//EN"
 "http://www.w3.org/TR/2001/REC-SVG-20010904/DTD/svg10.dtd">
<svg version="1.0" xmlns="http://www.w3.org/2000/svg"
 width="130.000000pt" height="130.000000pt" viewBox="0 0 130.000000 130.000000"
 preserveAspectRatio="xMidYMid meet">
<metadata>
Created by potrace 1.16, written by Peter Selinger 2001-2019
</metadata>
<g transform="translate(0.000000,130.000000) scale(0.100000,-0.100000)"
fill="#000000" stroke="none">
<path d="M130 645 l0 -195 165 0 165 0 0 44 c0 24 3 53 7 63 6 16 5 16 -10 4
-27 -22 -47 -6 -47 37 0 38 -19 69 -33 55 -4 -3 -7 -28 -7 -55 0 -41 -3 -48
-20 -48 -17 0 -20 7 -20 48 0 53 -5 63 -26 55 -9 -3 -14 -21 -14 -54 0 -42 -3
-49 -20 -49 -17 0 -20 7 -20 43 0 23 -3 52 -6 65 -6 20 -3 22 23 20 16 -1 34
1 41 6 6 4 21 2 32 -4 14 -8 26 -8 40 0 36 19 60 -3 60 -55 0 -25 5 -45 10
-45 6 0 10 50 10 130 l0 130 -165 0 -165 0 0 -195z"/>
<path d="M700 766 c0 -64 3 -81 19 -94 12 -11 21 -36 24 -69 l6 -53 -59 3
c-32 1 -56 -1 -53 -5 2 -5 17 -8 34 -8 28 0 29 -2 29 -45 l0 -45 220 0 220 0
0 190 0 190 -92 0 c-51 0 -150 3 -220 7 l-128 6 0 -77z"/>
</g>
</svg>
