<?xml version="1.0" standalone="no"?>
<!DOCTYPE svg PUBLIC "-//W3C//DTD SVG 20010904//EN"
 "http://www.w3.org/TR/2001/REC-SVG-20010904/DTD/svg10.dtd">
<svg version="1.0" xmlns="http://www.w3.org/2000/svg"
 width="130.000000pt" height="130.000000pt" viewBox="0 0 130.000000 130.000000"
 preserveAspectRatio="xMidYMid meet">
<metadata>
Created by potrace 1.16, written by Peter Selinger 2001-2019
</metadata>
<g transform="translate(0.000000,130.000000) scale(0.100000,-0.100000)"
fill="#000000" stroke="none">
<path d="M0 650 l0 -650 650 0 650 0 0 650 0 650 -650 0 -650 0 0 -650z m684
171 c15 -29 41 -58 62 -70 28 -17 35 -26 32 -48 -5 -45 -49 -68 -128 -68 -79
0 -123 23 -128 68 -3 21 4 31 29 46 l33 20 30 -55 c18 -34 33 -51 39 -45 6 6
-1 28 -18 59 -15 27 -25 60 -23 73 3 21 7 17 33 -28 17 -29 33 -53 38 -53 14
0 7 28 -18 71 -25 44 -32 79 -17 79 5 0 21 -22 36 -49z"/>
</g>
</svg>
