<svg width="60" height="55" viewBox="0 0 60 55" fill="none" xmlns="http://www.w3.org/2000/svg">
<path d="M46.6667 21.0919L33.2914 34.4083L33.2494 34.3665L31.0691 32.1959L31.0272 32.1541L28.8469 29.9835L28.8049 29.9417L26.6667 27.8128L26.6247 27.771L17.7778 36.579V45.4287L26.6667 54.2785V41.0039L31.1111 45.4287H35.5555L39.958 41.0456L40 41.0039L60 21.0919H46.6667Z" fill="url(#paint0_linear_58_823)"/>
<path d="M13.3333 33.1866L26.7086 19.8702L26.7506 19.9119L28.9309 22.0826L28.9728 22.1244L31.1531 24.295L31.1951 24.3368L33.3333 26.4657L33.3753 26.5075L42.2222 17.6995V8.84975L33.3333 0V13.2746L28.8889 8.84975H24.4444L20.042 13.2328L20 13.2746L0 33.1866H13.3333Z" fill="url(#paint1_linear_58_823)"/>
<defs>
<linearGradient id="paint0_linear_58_823" x1="26.5" y1="55.5" x2="61" y2="21" gradientUnits="userSpaceOnUse">
<stop stop-color="#FE3075"/>
<stop offset="1" stop-color="#FFAD33"/>
</linearGradient>
<linearGradient id="paint1_linear_58_823" x1="41" y1="-7.5" x2="1.89547e-06" y2="33" gradientUnits="userSpaceOnUse">
<stop stop-color="#FE3075"/>
<stop offset="1" stop-color="#FFAD33"/>
</linearGradient>
</defs>
</svg>
