<svg width="60" height="54" viewBox="0 0 60 54" fill="none" xmlns="http://www.w3.org/2000/svg">
<path d="M46.6667 20.9837L33.2914 34.2318L33.2494 34.1902L31.0691 32.0307L31.0272 31.9891L28.8469 29.8296L28.8049 29.788L26.6667 27.6701L26.6247 27.6285L17.7778 36.3913V45.1957L26.6667 54V40.7935L31.1111 45.1957H35.5555L39.958 40.8351L40 40.7935L60 20.9837H46.6667Z" fill="white"/>
<path d="M13.3333 33.0163L26.7086 19.7682L26.7506 19.8098L28.9309 21.9693L28.9728 22.0109L31.1531 24.1704L31.1951 24.212L33.3333 26.3299L33.3753 26.3715L42.2222 17.6087V8.80435L33.3333 0V13.2065L28.8889 8.80435H24.4444L20.042 13.1649L20 13.2065L0 33.0163H13.3333Z" fill="white"/>
</svg>
